<svg width="527" height="702" viewBox="0 0 527 702" fill="none" xmlns="http://www.w3.org/2000/svg">
<path fill-rule="evenodd" clip-rule="evenodd" d="M245.374 558.165L722.625 282.625L245.374 7.08368L245.374 558.165ZM246.374 556.433L720.625 282.625L246.374 8.81574L246.374 556.433Z" fill="#EBEBEB"/>
<path d="M250.069 9.69805C248.689 12.0895 245.631 12.9089 243.239 11.5282C240.848 10.1475 240.028 7.08951 241.409 4.69805C242.79 2.30658 245.848 1.48721 248.239 2.86792C250.631 4.24863 251.45 7.30658 250.069 9.69805Z" fill="#F2F2F2"/>
<path d="M250.226 559.426C248.845 561.818 245.788 562.637 243.396 561.256C241.005 559.876 240.185 556.818 241.566 554.426C242.947 552.035 246.005 551.215 248.396 552.596C250.788 553.977 251.607 557.035 250.226 559.426Z" fill="#F2F2F2"/>
</svg>
