<svg width="1892" height="1254" viewBox="0 0 1892 1254" fill="none" xmlns="http://www.w3.org/2000/svg">
<path fill-rule="evenodd" clip-rule="evenodd" d="M297.708 1109.95L297.708 558.872L-179.543 834.413L297.708 1109.95ZM296.708 1108.22L296.708 560.604L-177.543 834.413L296.708 1108.22Z" fill="#EBEBEB"/>
<circle cx="296.896" cy="1108.88" r="5" transform="rotate(-30 296.896 1108.88)" fill="#F2F2F2"/>
<circle cx="297.053" cy="559.153" r="5" transform="rotate(-30 297.053 559.153)" fill="#F2F2F2"/>
<path fill-rule="evenodd" clip-rule="evenodd" d="M426.095 258.643L426.095 0.515094L202.549 129.579L426.095 258.643ZM425.095 256.911L425.095 2.24714L204.549 129.579L425.095 256.911Z" fill="#EBEBEB"/>
<path fill-rule="evenodd" clip-rule="evenodd" d="M1668.06 416.515L1668.06 674.643L1891.61 545.579L1668.06 416.515ZM1669.06 418.247L1669.06 672.911L1889.61 545.579L1669.06 418.247Z" fill="#EBEBEB"/>
<path fill-rule="evenodd" clip-rule="evenodd" d="M836.374 812.165L1313.62 536.625L836.374 261.084L836.374 812.165ZM837.374 810.433L1311.62 536.625L837.374 262.816L837.374 810.433Z" fill="#EBEBEB"/>
<circle cx="836.739" cy="261.198" r="5" transform="rotate(30 836.739 261.198)" fill="#F2F2F2"/>
<circle cx="836.896" cy="810.926" r="5" transform="rotate(30 836.896 810.926)" fill="#F2F2F2"/>
<circle cx="1313.05" cy="536.198" r="5" transform="rotate(30 1313.05 536.198)" fill="#F2F2F2"/>
</svg>
