<svg width="320" height="702" viewBox="0 0 320 702" fill="none" xmlns="http://www.w3.org/2000/svg">
<path fill-rule="evenodd" clip-rule="evenodd" d="M157.374 558.165L634.625 282.625L157.374 7.08368L157.374 558.165ZM158.374 556.433L632.625 282.625L158.374 8.81574L158.374 556.433Z" fill="#EBEBEB"/>
<path d="M162.069 9.69805C160.689 12.0895 157.631 12.9089 155.239 11.5282C152.848 10.1475 152.028 7.08951 153.409 4.69805C154.79 2.30658 157.848 1.48721 160.239 2.86792C162.631 4.24863 163.45 7.30658 162.069 9.69805Z" fill="#F2F2F2"/>
<path d="M162.226 559.426C160.845 561.818 157.788 562.637 155.396 561.256C153.005 559.876 152.185 556.818 153.566 554.426C154.947 552.035 158.005 551.215 160.396 552.596C162.788 553.977 163.607 557.035 162.226 559.426Z" fill="#F2F2F2"/>
</svg>
